<svg width="57" height="14" viewBox="0 0 57 14" fill="none" xmlns="http://www.w3.org/2000/svg">
<g clip-path="url(#clip0_2031_509)">
<g clip-path="url(#clip1_2031_509)">
<line x1="1.51896" y1="12.69" x2="13.7936" y2="12.69" stroke="#E1A122" stroke-width="0.530098" stroke-linecap="round"/>
<line x1="6.73966" y1="4.35489" x2="6.73966" y2="10.9231" stroke="#E1A122" stroke-width="0.530098" stroke-linecap="round"/>
<line x1="8.69278" y1="4.35489" x2="8.69278" y2="10.9231" stroke="#E1A122" stroke-width="0.530098" stroke-linecap="round"/>
<line x1="10.5385" y1="4.35489" x2="10.5385" y2="8.5054" stroke="#E1A122" stroke-width="0.530098" stroke-linecap="round"/>
<line x1="4.63224" y1="2.4244" x2="10.6799" y2="2.4244" stroke="#E1A122" stroke-width="0.530098" stroke-linecap="round"/>
<path d="M13.4226 2.51424C13.3385 2.51424 13.2628 2.48691 13.1955 2.43225C13.1324 2.37338 13.1009 2.29349 13.1009 2.19257C13.1009 2.09166 13.1324 2.01387 13.1955 1.9592C13.2586 1.90454 13.3343 1.87721 13.4226 1.87721C13.5109 1.87721 13.5866 1.90454 13.6496 1.9592C13.7127 2.01387 13.7442 2.09166 13.7442 2.19257C13.7442 2.29349 13.7106 2.37338 13.6433 2.43225C13.5802 2.48691 13.5067 2.51424 13.4226 2.51424Z" fill="#E1A122"/>
<path d="M1.52608 2.51424C1.44198 2.51424 1.3663 2.48691 1.29902 2.43225C1.23595 2.37338 1.20441 2.29349 1.20441 2.19257C1.20441 2.09166 1.23595 2.01387 1.29902 1.9592C1.36209 1.90454 1.43778 1.87721 1.52608 1.87721C1.61438 1.87721 1.69007 1.90454 1.75314 1.9592C1.81622 2.01387 1.84775 2.09166 1.84775 2.19257C1.84775 2.29349 1.81411 2.37338 1.74684 2.43225C1.68376 2.48691 1.61018 2.51424 1.52608 2.51424Z" fill="#E1A122"/>
<line x1="4.95255" y1="4.35489" x2="4.95255" y2="8.5054" stroke="#E1A122" stroke-width="0.530098" stroke-linecap="round"/>
<line x1="1.51896" y1="1.21347" x2="13.4271" y2="1.21347" stroke="#E1A122" stroke-width="0.530098" stroke-linecap="round"/>
<path d="M13.6201 0.958984C14.4112 1.03936 15.0283 1.7082 15.0283 2.52051L15.0205 2.68066C14.9401 3.47166 14.2721 4.08868 13.46 4.08887L13.2988 4.08105C12.5607 4.00581 11.9734 3.41885 11.8984 2.68066L11.8906 2.52051C11.8906 2.39816 11.9061 2.27935 11.9326 2.16504H12.4854C12.4448 2.2761 12.4209 2.39545 12.4209 2.52051C12.4211 3.094 12.8865 3.55845 13.46 3.55859C14.0334 3.55839 14.4978 3.09397 14.498 2.52051C14.498 1.94719 14.0341 1.4821 13.4609 1.48145V1.47559H12.8916V1.05859C13.0679 0.989954 13.2594 0.951205 13.46 0.951172L13.6201 0.958984Z" fill="#E1A122"/>
<path d="M1.40723 0.958984C0.616121 1.03936 -0.000946999 1.7082 -0.000976562 2.52051L0.00683594 2.68066C0.0872173 3.47166 0.755224 4.08868 1.56738 4.08887L1.72852 4.08105C2.46659 4.00578 3.05391 3.41882 3.12891 2.68066L3.13672 2.52051C3.13671 2.39816 3.12124 2.27934 3.09473 2.16504H2.54199C2.58251 2.27609 2.60644 2.39545 2.60645 2.52051C2.60625 3.09398 2.14086 3.55841 1.56738 3.55859C0.993924 3.55839 0.529496 3.09397 0.529297 2.52051C0.529328 1.94691 0.99382 1.48164 1.56738 1.48145V1.47559H2.13281V1.05762C1.9573 0.989687 1.76682 0.951214 1.56738 0.951172L1.40723 0.958984Z" fill="#E1A122"/>
<path d="M20.6963 2.37496C20.3469 2.37496 20.1373 2.49143 20.0674 2.72436V2.14203H23.0256L20.6032 5.91551H22.3967C22.5714 5.91551 22.7209 5.88057 22.8451 5.81069C22.9732 5.73693 23.0645 5.64375 23.1188 5.53117L23.014 6.14844H19.9393L22.3676 2.37496H20.6963ZM27.0129 5.79322C26.8654 5.91357 26.6733 6.0145 26.4364 6.09603C26.1996 6.17755 25.9609 6.21832 25.7202 6.21832C25.3591 6.21832 25.0233 6.13485 24.7128 5.96792C24.4022 5.80098 24.1518 5.56029 23.9616 5.24583C23.7752 4.93137 23.682 4.56257 23.682 4.13941C23.682 3.74343 23.7674 3.38821 23.9383 3.07375C24.113 2.7593 24.3595 2.51472 24.6778 2.34002C25 2.16144 25.3747 2.07215 25.8017 2.07215C26.2559 2.07215 26.6597 2.17115 27.0129 2.36914V3.01552C26.8926 2.802 26.7179 2.63313 26.4888 2.5089C26.2598 2.38078 26.0152 2.31673 25.7551 2.31673C25.4251 2.31673 25.1379 2.39437 24.8933 2.54966C24.6526 2.70495 24.4682 2.91847 24.3401 3.19022C24.212 3.45809 24.1479 3.75896 24.1479 4.09282C24.1479 4.4694 24.2197 4.79744 24.3634 5.07696C24.5109 5.35647 24.7089 5.57193 24.9573 5.72334C25.2058 5.87086 25.4834 5.94462 25.7901 5.94462C26.2831 5.94462 26.6907 5.80098 27.0129 5.5137V5.79322ZM30.4027 6.14844L28.5742 4.11029V5.6127C28.5742 5.80681 28.6013 5.94268 28.6557 6.02033C28.71 6.09797 28.7605 6.14067 28.8071 6.14844H27.9103C27.9569 6.14067 28.0093 6.09991 28.0675 6.02615C28.1258 5.94851 28.1549 5.81069 28.1549 5.6127V2.68359C28.1549 2.4856 28.1277 2.34973 28.0734 2.27597C28.019 2.2022 27.9647 2.15756 27.9103 2.14203H28.8071C28.7605 2.14979 28.71 2.1925 28.6557 2.27014C28.6013 2.3439 28.5742 2.48172 28.5742 2.68359V4.09282L29.9543 2.71853C30.1756 2.49725 30.2862 2.34584 30.2862 2.26432C30.2862 2.19444 30.259 2.15368 30.2047 2.14203H31.1189C31.0568 2.14979 30.9578 2.1925 30.822 2.27014C30.69 2.3439 30.5191 2.4856 30.3095 2.69524L29.0051 3.98801L30.4784 5.5894C30.657 5.79516 30.7967 5.93686 30.8977 6.0145C31.0025 6.08826 31.0762 6.13291 31.1189 6.14844H30.4027ZM31.5871 4.51792C31.5871 4.175 31.6599 3.86928 31.8055 3.60076C31.9543 3.33224 32.1613 3.12357 32.4266 2.97476C32.6951 2.82594 33.0041 2.75153 33.3535 2.75153C33.6447 2.75153 33.9164 2.81623 34.1688 2.94564C34.4243 3.07181 34.6281 3.26268 34.7802 3.51826C34.9355 3.77384 35.0131 4.08118 35.0131 4.44028C35.0131 4.7832 34.9387 5.08893 34.7899 5.35744C34.6443 5.62596 34.4373 5.83463 34.1688 5.98344C33.9035 6.13226 33.5961 6.20667 33.2467 6.20667C32.9556 6.20667 32.6822 6.14358 32.4266 6.01741C32.1743 5.88801 31.9705 5.69552 31.8152 5.43994C31.6631 5.18436 31.5871 4.87702 31.5871 4.51792ZM34.6249 4.51307C34.6249 4.21867 34.5634 3.95339 34.4405 3.71722C34.3208 3.47782 34.1542 3.2918 33.9407 3.15916C33.7304 3.02328 33.4926 2.95535 33.2273 2.95535C32.9847 2.95535 32.7679 3.01681 32.5771 3.13975C32.3894 3.26269 32.2422 3.43738 32.1355 3.66384C32.0287 3.88707 31.9753 4.1475 31.9753 4.44513C31.9753 4.73953 32.0352 5.00643 32.1549 5.24583C32.2778 5.482 32.4444 5.66802 32.6547 5.80389C32.8682 5.93654 33.1076 6.00286 33.3729 6.00286C33.6155 6.00286 33.8307 5.94139 34.0183 5.81845C34.2092 5.69552 34.358 5.52244 34.4648 5.29921C34.5715 5.07275 34.6249 4.8107 34.6249 4.51307ZM35.8689 3.26107C35.8689 3.13166 35.8528 3.03461 35.8204 2.9699C35.7913 2.90197 35.7573 2.85667 35.7185 2.83403C35.6797 2.81138 35.6603 2.80329 35.6603 2.80976H36.4319C36.4319 2.80329 36.4125 2.81138 36.3736 2.83403C36.3348 2.85667 36.2992 2.90197 36.2669 2.9699C36.2345 3.03461 36.2183 3.13166 36.2183 3.26107V5.95433H37.0142C37.1598 5.95433 37.2843 5.92521 37.3879 5.86698C37.4946 5.80551 37.5706 5.72787 37.6159 5.63405L37.5286 6.14844H35.6603C35.6603 6.15814 35.6797 6.15167 35.7185 6.12903C35.7573 6.10315 35.7913 6.05462 35.8204 5.98344C35.8528 5.90904 35.8689 5.80228 35.8689 5.66317V3.26107ZM38.7644 4.85276L38.4539 5.62434C38.4053 5.74404 38.3811 5.84272 38.3811 5.92036C38.3811 6.02712 38.4296 6.10315 38.5266 6.14844H37.8327C37.8651 6.14844 37.912 6.11609 37.9734 6.05138C38.0349 5.98668 38.1061 5.85889 38.187 5.66802L39.4535 2.65448L40.7104 5.68258C40.7815 5.85727 40.8495 5.97697 40.9142 6.04168C40.9821 6.10638 41.0355 6.14197 41.0743 6.14844H40.2688C40.3497 6.10962 40.3901 6.04977 40.3901 5.96889C40.3901 5.90095 40.3642 5.80389 40.3125 5.67772L39.9728 4.85276H38.7644ZM39.8951 4.6538L39.3662 3.35812L38.8469 4.6538H39.8951ZM43.7115 2.80976C43.6791 2.81623 43.6274 2.85182 43.5562 2.91652C43.485 2.98123 43.3993 3.10093 43.299 3.27563L42.4595 4.71688V5.69713C42.4595 5.86213 42.4821 5.97697 42.5274 6.04168C42.5727 6.10638 42.6148 6.14197 42.6536 6.14844H41.916C41.9548 6.14197 41.9969 6.108 42.0421 6.04653C42.0874 5.98183 42.1101 5.86536 42.1101 5.69713V4.71203L41.2803 3.27077C41.1832 3.10255 41.0991 2.9877 41.0279 2.92623C40.9568 2.86153 40.9001 2.8227 40.8581 2.80976H41.6733C41.5925 2.82594 41.552 2.8777 41.552 2.96505C41.552 2.99417 41.5617 3.02975 41.5811 3.07181C41.6005 3.11063 41.6313 3.16725 41.6733 3.24166L42.377 4.4791L43.0806 3.26107C43.1356 3.17048 43.1631 3.07828 43.1631 2.98446C43.1631 2.92299 43.1437 2.88094 43.1049 2.85829C43.0693 2.83241 43.0337 2.81623 42.9981 2.80976H43.7115ZM44.2238 3.26107C44.2238 3.13166 44.2076 3.03461 44.1753 2.9699C44.1461 2.90197 44.1122 2.85667 44.0733 2.83403C44.0345 2.81138 44.0151 2.80329 44.0151 2.80976H44.7867C44.7867 2.80329 44.7673 2.81138 44.7285 2.83403C44.6896 2.85667 44.6541 2.90197 44.6217 2.9699C44.5894 3.03461 44.5732 3.13166 44.5732 3.26107V5.95433H45.369C45.5146 5.95433 45.6392 5.92521 45.7427 5.86698C45.8494 5.80551 45.9255 5.72787 45.9708 5.63405L45.8834 6.14844H44.0151C44.0151 6.15814 44.0345 6.15167 44.0733 6.12903C44.1122 6.10315 44.1461 6.05462 44.1753 5.98344C44.2076 5.90904 44.2238 5.80228 44.2238 5.66317V3.26107ZM46.4651 6.14844C46.4651 6.15814 46.4845 6.15167 46.5233 6.12903C46.5621 6.10315 46.5977 6.05785 46.6301 5.99315C46.6624 5.92521 46.6786 5.82654 46.6786 5.69713V3.26107C46.6786 3.13166 46.6624 3.03461 46.6301 2.9699C46.6009 2.90197 46.567 2.85667 46.5281 2.83403C46.4893 2.81138 46.4699 2.80329 46.4699 2.80976H47.2415C47.2415 2.80329 47.2221 2.81138 47.1833 2.83403C47.1444 2.85667 47.1089 2.90197 47.0765 2.9699C47.0442 3.03461 47.028 3.13166 47.028 3.26107V5.69713C47.028 5.82654 47.0442 5.92521 47.0765 5.99315C47.1089 6.05785 47.1444 6.10153 47.1833 6.12417C47.2221 6.14682 47.2415 6.15491 47.2415 6.14844H46.4651Z" fill="url(#paint0_linear_2031_509)"/>
<path d="M22.1498 10.9551C22.1498 10.9647 22.1689 10.9583 22.2072 10.9359C22.2456 10.9104 22.2807 10.8657 22.3126 10.8018C22.3445 10.7347 22.3605 10.6374 22.3605 10.5096V9.42233H20.5595V10.5096C20.5595 10.6374 20.5755 10.7347 20.6074 10.8018C20.6394 10.8657 20.6745 10.9088 20.7128 10.9311C20.7511 10.9535 20.7703 10.9615 20.7703 10.9551H20.0087C20.0087 10.9647 20.0279 10.9583 20.0662 10.9359C20.1045 10.9104 20.138 10.8657 20.1668 10.8018C20.1987 10.7347 20.2147 10.6374 20.2147 10.5096V8.10512C20.2147 7.97739 20.1987 7.8816 20.1668 7.81773C20.138 7.75067 20.1045 7.70597 20.0662 7.68362C20.0279 7.66126 20.0087 7.65328 20.0087 7.65967H20.7703C20.7703 7.65328 20.7511 7.66126 20.7128 7.68362C20.6745 7.70597 20.6394 7.75067 20.6074 7.81773C20.5755 7.8816 20.5595 7.97739 20.5595 8.10512V9.21158H22.3605V8.10512C22.3605 7.97739 22.3445 7.8816 22.3126 7.81773C22.2807 7.75067 22.2456 7.70597 22.2072 7.68362C22.1689 7.66126 22.1498 7.65328 22.1498 7.65967H22.9113C22.9113 7.65009 22.8922 7.65807 22.8539 7.68362C22.8155 7.70597 22.7804 7.75067 22.7485 7.81773C22.7197 7.8816 22.7054 7.97739 22.7054 8.10512V10.5096C22.7054 10.6374 22.7213 10.7347 22.7533 10.8018C22.7852 10.8657 22.8203 10.9088 22.8587 10.9311C22.897 10.9535 22.9161 10.9615 22.9161 10.9551H22.1498ZM25.231 10.1854C25.231 10.355 25.1988 10.501 25.1344 10.6234C25.07 10.7436 24.9787 10.8359 24.8606 10.9003C24.7447 10.9626 24.6094 10.9937 24.4549 10.9937C24.1994 10.9937 24.0018 10.9229 23.8623 10.7812C23.7227 10.6395 23.6529 10.443 23.6529 10.1918V9.03887C23.6529 8.95299 23.6422 8.88858 23.6207 8.84564C23.6014 8.80055 23.5789 8.77049 23.5531 8.75547C23.5295 8.74044 23.5177 8.73507 23.5177 8.73936H24.0201C24.0201 8.73507 24.0072 8.74044 23.9814 8.75547C23.9578 8.77049 23.9353 8.79948 23.9138 8.84242C23.8945 8.88536 23.8848 8.94762 23.8848 9.02921V10.1918C23.8848 10.4001 23.9342 10.5611 24.033 10.6749C24.1339 10.7887 24.2809 10.8456 24.4742 10.8456C24.6524 10.8456 24.793 10.7919 24.8961 10.6846C24.9991 10.5751 25.0506 10.414 25.0506 10.2015V9.03887C25.0506 8.95299 25.0399 8.88858 25.0184 8.84564C24.997 8.80055 24.9734 8.77049 24.9476 8.75547C24.9218 8.74044 24.9089 8.73507 24.9089 8.73936H25.3727C25.3727 8.73507 25.3598 8.74044 25.3341 8.75547C25.3083 8.77049 25.2847 8.80055 25.2632 8.84564C25.2417 8.88858 25.231 8.95299 25.231 9.03887V10.1854ZM27.1244 10.9551L26.1131 9.8279V10.6588C26.1131 10.7661 26.1282 10.8413 26.1582 10.8842C26.1883 10.9272 26.2162 10.9508 26.242 10.9551H25.746C25.7718 10.9508 25.8008 10.9282 25.833 10.8874C25.8652 10.8445 25.8813 10.7683 25.8813 10.6588V9.03887C25.8813 8.92937 25.8662 8.85423 25.8362 8.81344C25.8061 8.77264 25.7761 8.74795 25.746 8.73936H26.242C26.2162 8.74366 26.1883 8.76727 26.1582 8.81021C26.1282 8.85101 26.1131 8.92723 26.1131 9.03887V9.81824L26.8764 9.05819C26.9988 8.93581 27.06 8.85208 27.06 8.80699C27.06 8.76835 27.0449 8.7458 27.0149 8.73936H27.5205C27.4862 8.74366 27.4314 8.76727 27.3563 8.81021C27.2833 8.85101 27.1888 8.92937 27.0729 9.04531L26.3515 9.76027L27.1663 10.6459C27.265 10.7597 27.3423 10.8381 27.3981 10.881C27.4561 10.9218 27.4969 10.9465 27.5205 10.9551H27.1244ZM29.5335 10.1854C29.5335 10.355 29.5013 10.501 29.4369 10.6234C29.3725 10.7436 29.2813 10.8359 29.1632 10.9003C29.0472 10.9626 28.912 10.9937 28.7574 10.9937C28.5019 10.9937 28.3044 10.9229 28.1648 10.7812C28.0253 10.6395 27.9555 10.443 27.9555 10.1918V9.03887C27.9555 8.95299 27.9447 8.88858 27.9233 8.84564C27.904 8.80055 27.8814 8.77049 27.8556 8.75547C27.832 8.74044 27.8202 8.73507 27.8202 8.73936H28.3226C28.3226 8.73507 28.3097 8.74044 28.284 8.75547C28.2604 8.77049 28.2378 8.79948 28.2163 8.84242C28.197 8.88536 28.1874 8.94762 28.1874 9.02921V10.1918C28.1874 10.4001 28.2367 10.5611 28.3355 10.6749C28.4364 10.7887 28.5835 10.8456 28.7767 10.8456C28.9549 10.8456 29.0955 10.7919 29.1986 10.6846C29.3017 10.5751 29.3532 10.414 29.3532 10.2015V9.03887C29.3532 8.95299 29.3424 8.88858 29.321 8.84564C29.2995 8.80055 29.2759 8.77049 29.2501 8.75547C29.2244 8.74044 29.2115 8.73507 29.2115 8.73936H29.6752C29.6752 8.73507 29.6624 8.74044 29.6366 8.75547C29.6108 8.77049 29.5872 8.80055 29.5657 8.84564C29.5443 8.88858 29.5335 8.95299 29.5335 9.03887V10.1854ZM31.4269 10.9551L30.4157 9.8279V10.6588C30.4157 10.7661 30.4307 10.8413 30.4608 10.8842C30.4908 10.9272 30.5187 10.9508 30.5445 10.9551H30.0485C30.0743 10.9508 30.1033 10.9282 30.1355 10.8874C30.1677 10.8445 30.1838 10.7683 30.1838 10.6588V9.03887C30.1838 8.92937 30.1688 8.85423 30.1387 8.81344C30.1087 8.77264 30.0786 8.74795 30.0485 8.73936H30.5445C30.5187 8.74366 30.4908 8.76727 30.4608 8.81021C30.4307 8.85101 30.4157 8.92723 30.4157 9.03887V9.81824L31.1789 9.05819C31.3013 8.93581 31.3625 8.85208 31.3625 8.80699C31.3625 8.76835 31.3475 8.7458 31.3174 8.73936H31.823C31.7887 8.74366 31.7339 8.76727 31.6588 8.81021C31.5858 8.85101 31.4913 8.92937 31.3754 9.04531L30.654 9.76027L31.4688 10.6459C31.5675 10.7597 31.6448 10.8381 31.7007 10.881C31.7586 10.9218 31.7994 10.9465 31.823 10.9551H31.4269ZM35.7564 10.8737C35.6734 10.9024 35.5776 10.9231 35.469 10.9359C35.3636 10.9487 35.2168 10.9551 35.0284 10.9551H34.238C34.2795 10.9455 34.3243 10.9104 34.3722 10.8497C34.4201 10.7858 34.444 10.6645 34.444 10.4857V8.1147C34.444 7.94865 34.4216 7.8353 34.3769 7.77462C34.3322 7.71076 34.2875 7.67244 34.2428 7.65967H35.0284C35.2327 7.65967 35.3876 7.66925 35.493 7.68841C35.6015 7.70437 35.6957 7.72992 35.7756 7.76504C35.9161 7.8321 36.0246 7.9263 36.1013 8.04764C36.1779 8.16899 36.2162 8.29991 36.2162 8.44041C36.2162 8.65436 36.1508 8.83957 36.0199 8.99603C35.8921 9.14931 35.7229 9.2483 35.5121 9.293C35.6558 9.30897 35.7915 9.35048 35.9193 9.41754C36.0502 9.4846 36.1556 9.5756 36.2354 9.69056C36.3184 9.80552 36.3599 9.93644 36.3599 10.0833C36.3599 10.2877 36.3057 10.4553 36.1971 10.5863C36.0885 10.714 35.9416 10.8098 35.7564 10.8737ZM35.6223 7.99496C35.5584 7.94706 35.4898 7.91193 35.4163 7.88958C35.3429 7.86403 35.2439 7.85126 35.1194 7.85126H34.7889V9.21158H35.1768C35.2918 9.21158 35.3876 9.19401 35.4642 9.15889C35.5409 9.12376 35.6079 9.07746 35.6654 9.01998C35.7261 8.95931 35.774 8.88587 35.8091 8.79965C35.8442 8.71343 35.8618 8.62562 35.8618 8.53621C35.8618 8.42764 35.841 8.32546 35.7995 8.22966C35.7612 8.13386 35.7021 8.05563 35.6223 7.99496ZM35.7229 9.54208C35.6622 9.49418 35.5872 9.45905 35.4978 9.4367C35.4084 9.41435 35.287 9.40317 35.1337 9.40317H34.7889V10.7635H35.2439C35.4738 10.7635 35.6526 10.7092 35.7804 10.6006C35.9113 10.4921 35.9767 10.3196 35.9767 10.0833C35.9767 9.86299 35.8921 9.68258 35.7229 9.54208ZM38.6558 10.1854C38.6558 10.355 38.6236 10.501 38.5592 10.6234C38.4948 10.7436 38.4035 10.8359 38.2854 10.9003C38.1695 10.9626 38.0342 10.9937 37.8796 10.9937C37.6242 10.9937 37.4266 10.9229 37.2871 10.7812C37.1475 10.6395 37.0777 10.443 37.0777 10.1918V9.03887C37.0777 8.95299 37.067 8.88858 37.0455 8.84564C37.0262 8.80055 37.0037 8.77049 36.9779 8.75547C36.9543 8.74044 36.9425 8.73507 36.9425 8.73936H37.4449C37.4449 8.73507 37.432 8.74044 37.4062 8.75547C37.3826 8.77049 37.3601 8.79948 37.3386 8.84242C37.3193 8.88536 37.3096 8.94762 37.3096 9.02921V10.1918C37.3096 10.4001 37.359 10.5611 37.4578 10.6749C37.5587 10.7887 37.7057 10.8456 37.899 10.8456C38.0772 10.8456 38.2178 10.7919 38.3209 10.6846C38.4239 10.5751 38.4754 10.414 38.4754 10.2015V9.03887C38.4754 8.95299 38.4647 8.88858 38.4432 8.84564C38.4218 8.80055 38.3981 8.77049 38.3724 8.75547C38.3466 8.74044 38.3337 8.73507 38.3337 8.73936H38.7975C38.7975 8.73507 38.7846 8.74044 38.7588 8.75547C38.7331 8.77049 38.7095 8.80055 38.688 8.84564C38.6665 8.88858 38.6558 8.95299 38.6558 9.03887V10.1854ZM37.5125 8.56868C37.4739 8.56868 37.4427 8.55579 37.4191 8.53003C37.3976 8.50427 37.3869 8.47421 37.3869 8.43986C37.3869 8.4055 37.3976 8.37544 37.4191 8.34968C37.4427 8.32392 37.4739 8.31103 37.5125 8.31103C37.5512 8.31103 37.5812 8.32392 37.6027 8.34968C37.6263 8.37544 37.6381 8.4055 37.6381 8.43986C37.6381 8.47421 37.6263 8.50427 37.6027 8.53003C37.5812 8.55579 37.5512 8.56868 37.5125 8.56868ZM38.2468 8.56868C38.2081 8.56868 38.177 8.55579 38.1534 8.53003C38.1319 8.50427 38.1212 8.47421 38.1212 8.43986C38.1212 8.4055 38.1319 8.37544 38.1534 8.34968C38.177 8.32392 38.2081 8.31103 38.2468 8.31103C38.2854 8.31103 38.3155 8.32392 38.337 8.34968C38.3606 8.37544 38.3724 8.4055 38.3724 8.43986C38.3724 8.47421 38.3606 8.50427 38.337 8.53003C38.3155 8.55579 38.2854 8.56868 38.2468 8.56868ZM39.8149 9.84078C39.9137 9.84078 39.9995 9.81824 40.0725 9.77315C40.1455 9.72591 40.2003 9.6658 40.2368 9.5928C40.2754 9.51765 40.2948 9.43929 40.2948 9.3577C40.2948 9.27397 40.2765 9.1956 40.24 9.1226C40.2057 9.04746 40.152 8.98627 40.079 8.93904C40.006 8.8918 39.9169 8.86818 39.8117 8.86818H39.5379V10.6588C39.5379 10.7447 39.5487 10.8102 39.5701 10.8552C39.5916 10.8982 39.6152 10.9272 39.641 10.9422C39.6668 10.9551 39.6796 10.9594 39.6796 10.9551H39.1676C39.1676 10.9594 39.1805 10.954 39.2062 10.939C39.232 10.9239 39.2545 10.895 39.2739 10.852C39.2953 10.8091 39.3061 10.7447 39.3061 10.6588V9.04853C39.3061 8.96051 39.2953 8.89395 39.2739 8.84886C39.2545 8.80163 39.232 8.77049 39.2062 8.75547C39.1805 8.73829 39.1676 8.73292 39.1676 8.73936H39.8052C39.9727 8.73936 40.1101 8.76727 40.2175 8.8231C40.327 8.87677 40.4053 8.94762 40.4526 9.03565C40.5019 9.12153 40.5266 9.216 40.5266 9.31906C40.5266 9.40494 40.5062 9.48974 40.4654 9.57348C40.4247 9.65506 40.3656 9.72699 40.2883 9.78925C40.2132 9.84937 40.1251 9.89123 40.0242 9.91485L39.9727 9.92451L40.5395 10.6459C40.6147 10.7296 40.6769 10.7941 40.7263 10.8391C40.7757 10.8842 40.8111 10.9143 40.8326 10.9293C40.8562 10.9443 40.8702 10.9529 40.8745 10.9551H40.4977L39.6217 9.84078H39.8149ZM41.0075 9.87298C41.0075 9.6454 41.0558 9.44251 41.1524 9.26431C41.2512 9.08611 41.3886 8.94762 41.5646 8.84886C41.7428 8.7501 41.9479 8.70072 42.1797 8.70072C42.373 8.70072 42.5533 8.74366 42.7208 8.82954C42.8904 8.91327 43.0257 9.03994 43.1266 9.20956C43.2296 9.37917 43.2812 9.58314 43.2812 9.82146C43.2812 10.049 43.2318 10.2519 43.133 10.4301C43.0364 10.6083 42.899 10.7468 42.7208 10.8456C42.5447 10.9443 42.3408 10.9937 42.1089 10.9937C41.9157 10.9937 41.7342 10.9519 41.5646 10.8681C41.3972 10.7822 41.2619 10.6545 41.1588 10.4849C41.0579 10.3153 41.0075 10.1113 41.0075 9.87298ZM43.0235 9.86976C43.0235 9.67439 42.9827 9.49833 42.9011 9.3416C42.8217 9.18272 42.7111 9.05927 42.5694 8.97124C42.4299 8.88107 42.2721 8.83598 42.096 8.83598C41.935 8.83598 41.7911 8.87677 41.6645 8.95836C41.5399 9.03994 41.4422 9.15588 41.3714 9.30617C41.3005 9.45432 41.2651 9.62715 41.2651 9.82468C41.2651 10.0201 41.3048 10.1972 41.3843 10.3561C41.4659 10.5128 41.5764 10.6362 41.716 10.7264C41.8577 10.8144 42.0166 10.8585 42.1926 10.8585C42.3536 10.8585 42.4964 10.8177 42.621 10.7361C42.7476 10.6545 42.8464 10.5396 42.9172 10.3915C42.9881 10.2412 43.0235 10.0673 43.0235 9.86976ZM44.2324 10.9937C44.1207 10.9937 44.0134 10.9787 43.9103 10.9486C43.8073 10.9164 43.7149 10.8724 43.6333 10.8166V10.4269C43.6892 10.5708 43.774 10.6803 43.8878 10.7554C44.0037 10.8284 44.1239 10.8649 44.2485 10.8649C44.373 10.8649 44.4771 10.8241 44.5609 10.7425C44.6446 10.6588 44.6865 10.5557 44.6865 10.4334C44.6865 10.3518 44.6693 10.282 44.6349 10.224C44.6027 10.1661 44.5501 10.1124 44.4771 10.063C44.4041 10.0115 44.3011 9.95457 44.168 9.89231C43.9812 9.80643 43.8448 9.71733 43.7589 9.62501C43.6752 9.53054 43.6333 9.41675 43.6333 9.28363C43.6333 9.16984 43.6602 9.06893 43.7139 8.9809C43.7697 8.89073 43.8438 8.82202 43.9361 8.77479C44.0305 8.72541 44.1336 8.70072 44.2452 8.70072C44.3419 8.70072 44.4363 8.71467 44.5287 8.74258C44.621 8.76835 44.7069 8.80592 44.7863 8.8553V9.20312C44.7348 9.08503 44.6564 8.99378 44.5512 8.92937C44.4481 8.86282 44.3429 8.82954 44.2356 8.82954C44.1132 8.82954 44.0144 8.86926 43.9393 8.9487C43.8642 9.02814 43.8266 9.1226 43.8266 9.2321C43.8266 9.31154 43.8491 9.38025 43.8942 9.43822C43.9393 9.49404 43.994 9.54127 44.0585 9.57992C44.125 9.61856 44.2173 9.6658 44.3354 9.72162C44.4557 9.77959 44.5544 9.83327 44.6317 9.88265C44.709 9.93203 44.7734 9.99644 44.8249 10.0759C44.8765 10.1553 44.9022 10.2519 44.9022 10.3657C44.9022 10.4945 44.8711 10.6062 44.8088 10.7007C44.7487 10.7951 44.6671 10.8681 44.5641 10.9197C44.4632 10.969 44.3526 10.9937 44.2324 10.9937ZM46.9998 10.1854C46.9998 10.355 46.9676 10.501 46.9032 10.6234C46.8388 10.7436 46.7475 10.8359 46.6295 10.9003C46.5135 10.9626 46.3783 10.9937 46.2237 10.9937C45.9682 10.9937 45.7707 10.9229 45.6311 10.7812C45.4915 10.6395 45.4218 10.443 45.4218 10.1918V9.03887C45.4218 8.95299 45.411 8.88858 45.3896 8.84564C45.3702 8.80055 45.3477 8.77049 45.3219 8.75547C45.2983 8.74044 45.2865 8.73507 45.2865 8.73936H45.7889C45.7889 8.73507 45.776 8.74044 45.7503 8.75547C45.7266 8.77049 45.7041 8.79948 45.6826 8.84242C45.6633 8.88536 45.6536 8.94762 45.6536 9.02921V10.1918C45.6536 10.4001 45.703 10.5611 45.8018 10.6749C45.9027 10.7887 46.0498 10.8456 46.243 10.8456C46.4212 10.8456 46.5618 10.7919 46.6649 10.6846C46.7679 10.5751 46.8195 10.414 46.8195 10.2015V9.03887C46.8195 8.95299 46.8087 8.88858 46.7873 8.84564C46.7658 8.80055 46.7422 8.77049 46.7164 8.75547C46.6907 8.74044 46.6778 8.73507 46.6778 8.73936H47.1415C47.1415 8.73507 47.1286 8.74044 47.1029 8.75547C47.0771 8.77049 47.0535 8.80055 47.032 8.84564C47.0106 8.88858 46.9998 8.95299 46.9998 9.03887V10.1854Z" fill="url(#paint1_linear_2031_509)"/>
<line x1="17.3142" y1="2.81641" x2="17.3142" y2="10.5654" stroke="#E1A122" stroke-width="0.0932973"/>
</g>
</g>
<defs>
<linearGradient id="paint0_linear_2031_509" x1="47.6016" y1="4.64844" x2="19.6016" y2="4.64844" gradientUnits="userSpaceOnUse">
<stop stop-color="#7B5813"/>
<stop offset="0.390824" stop-color="#F7A80B"/>
<stop offset="0.727263" stop-color="#AE7D1A"/>
<stop offset="1" stop-color="#EABB5D"/>
</linearGradient>
<linearGradient id="paint1_linear_2031_509" x1="47.6016" y1="10.4551" x2="19.6016" y2="10.4551" gradientUnits="userSpaceOnUse">
<stop stop-color="#7B5813"/>
<stop offset="0.390824" stop-color="#F7A80B"/>
<stop offset="0.727263" stop-color="#AE7D1A"/>
<stop offset="1" stop-color="#EABB5D"/>
</linearGradient>
<clipPath id="clip0_2031_509">
<rect width="56.6781" height="13.9946" fill="white"/>
</clipPath>
<clipPath id="clip1_2031_509">
<rect width="53.646" height="12.0862" fill="white" transform="translate(0 0.955078)"/>
</clipPath>
</defs>
</svg>
