<svg width="180" height="45" viewBox="0 0 180 45" fill="none" xmlns="http://www.w3.org/2000/svg">
<g clip-path="url(#clip0_2031_509)">
<g clip-path="url(#clip1_2031_509)">
<line x1="5.80897" y1="40.5485" x2="47.1625" y2="40.5485" stroke="#E1A122" stroke-width="1.78591" stroke-linecap="round"/>
<line x1="23.4027" y1="12.4672" x2="23.4027" y2="34.5957" stroke="#E1A122" stroke-width="1.78591" stroke-linecap="round"/>
<line x1="29.9808" y1="12.4672" x2="29.9808" y2="34.5957" stroke="#E1A122" stroke-width="1.78591" stroke-linecap="round"/>
<line x1="36.1957" y1="12.4672" x2="36.1957" y2="26.4503" stroke="#E1A122" stroke-width="1.78591" stroke-linecap="round"/>
<line x1="16.2972" y1="5.96642" x2="36.6719" y2="5.96642" stroke="#E1A122" stroke-width="1.78591" stroke-linecap="round"/>
<path d="M45.9133 7.42148C45.6299 7.42148 45.375 7.3294 45.1483 7.14524C44.9358 6.94691 44.8296 6.67775 44.8296 6.33776C44.8296 5.99778 44.9358 5.7357 45.1483 5.55154C45.3608 5.36738 45.6158 5.2753 45.9133 5.2753C46.2108 5.2753 46.4657 5.36738 46.6782 5.55154C46.8907 5.7357 46.997 5.99778 46.997 6.33776C46.997 6.67775 46.8837 6.94691 46.657 7.14524C46.4445 7.3294 46.1966 7.42148 45.9133 7.42148Z" fill="#E1A122"/>
<path d="M5.8371 7.42148C5.55377 7.42148 5.29878 7.3294 5.07212 7.14524C4.85963 6.94691 4.75338 6.67775 4.75338 6.33776C4.75338 5.99778 4.85963 5.7357 5.07212 5.55154C5.28461 5.36738 5.53961 5.2753 5.8371 5.2753C6.13459 5.2753 6.38958 5.36738 6.60207 5.55154C6.81456 5.7357 6.92081 5.99778 6.92081 6.33776C6.92081 6.67775 6.80748 6.94691 6.58082 7.14524C6.36833 7.3294 6.12042 7.42148 5.8371 7.42148Z" fill="#E1A122"/>
<line x1="17.3793" y1="12.4672" x2="17.3793" y2="26.4503" stroke="#E1A122" stroke-width="1.78591" stroke-linecap="round"/>
<line x1="5.80897" y1="1.88439" x2="45.9277" y2="1.88439" stroke="#E1A122" stroke-width="1.78591" stroke-linecap="round"/>
<path d="M46.3135 1.00684C49.1063 1.14827 51.3268 3.45829 51.3271 6.28613L51.3203 6.55762C51.1789 9.35053 48.87 11.5711 46.042 11.5713L45.7695 11.5645C43.0671 11.4269 40.8996 9.26019 40.7627 6.55762L40.7559 6.28613C40.7559 5.87473 40.8046 5.47422 40.8936 5.08984H42.7529C42.6171 5.46304 42.5421 5.86601 42.542 6.28613C42.5421 8.21872 44.1095 9.7857 46.042 9.78613C47.9748 9.78599 49.5418 8.21889 49.542 6.28613C49.5416 4.35357 47.9746 2.78628 46.042 2.78613C46.0407 2.78613 46.0394 2.78613 46.0381 2.78613V2.76465H44.1318V1.35742C44.7243 1.12761 45.3684 1.0001 46.042 1L46.3135 1.00684Z" fill="#E1A122"/>
<path d="M5.70215 1.00684C2.90937 1.14827 0.688844 3.45829 0.688477 6.28613L0.695312 6.55762C0.836762 9.35053 3.1456 11.5711 5.97363 11.5713L6.24609 11.5645C8.94855 11.427 11.1161 9.26023 11.2529 6.55762L11.2598 6.28613C11.2597 5.87472 11.2111 5.47422 11.1221 5.08984H9.2627C9.3985 5.46305 9.47355 5.86601 9.47363 6.28613C9.47349 8.21876 7.9062 9.78577 5.97363 9.78613C4.04087 9.78599 2.47378 8.21889 2.47363 6.28613C2.47401 4.35476 4.03875 2.7882 5.96973 2.78613V2.76465H7.87891V1.35547C7.2878 1.12686 6.64537 1.00008 5.97363 1L5.70215 1.00684Z" fill="#E1A122"/>
<path d="M71.019 5.59014C69.5936 5.59014 68.7383 6.06527 68.4533 7.01553V4.63988H80.5216L70.6389 20.0341H77.9559C78.6686 20.0341 79.2783 19.8916 79.7851 19.6065C80.3078 19.3056 80.68 18.9255 80.9017 18.4662L80.4741 20.9844H67.9306L77.8371 5.59014H71.019ZM96.7881 19.5352C96.1863 20.0262 95.4023 20.438 94.4362 20.7706C93.4701 21.1032 92.4961 21.2695 91.5142 21.2695C90.0413 21.2695 88.6713 20.9289 87.4043 20.2479C86.1373 19.5669 85.1157 18.585 84.3397 17.3021C83.5795 16.0193 83.1994 14.5147 83.1994 12.7884C83.1994 11.1729 83.5478 9.72378 84.2447 8.44092C84.9574 7.15807 85.9631 6.16029 87.2618 5.4476C88.5763 4.71906 90.1046 4.3548 91.8468 4.3548C93.6998 4.3548 95.3469 4.75866 96.7881 5.56638V8.20336C96.2972 7.33228 95.5845 6.64334 94.65 6.13654C93.7156 5.61389 92.7178 5.35257 91.6567 5.35257C90.3105 5.35257 89.1385 5.66933 88.1407 6.30283C87.1588 6.93634 86.4065 7.80741 85.8839 8.91605C85.3612 10.0089 85.0999 11.2363 85.0999 12.5983C85.0999 14.1346 85.3929 15.4729 85.9789 16.6132C86.5807 17.7535 87.3885 18.6325 88.4021 19.2501C89.4157 19.852 90.5481 20.1529 91.7993 20.1529C93.8106 20.1529 95.4736 19.5669 96.7881 18.3949V19.5352ZM110.617 20.9844L103.157 12.6696V18.7988C103.157 19.5907 103.268 20.145 103.49 20.4617C103.712 20.7785 103.918 20.9527 104.108 20.9844H100.449C100.639 20.9527 100.853 20.7864 101.09 20.4855C101.328 20.1687 101.447 19.6065 101.447 18.7988V6.84923C101.447 6.04151 101.336 5.48719 101.114 5.18628C100.893 4.88536 100.671 4.70323 100.449 4.63988H104.108C103.918 4.67155 103.712 4.84577 103.49 5.16252C103.268 5.46344 103.157 6.02567 103.157 6.84923V12.5983L108.788 6.99177C109.69 6.08902 110.142 5.47135 110.142 5.13876C110.142 4.85368 110.031 4.68739 109.809 4.63988H113.539C113.285 4.67155 112.882 4.84577 112.327 5.16252C111.789 5.46344 111.092 6.04151 110.237 6.89675L104.915 12.1707L110.926 18.7037C111.654 19.5431 112.224 20.1212 112.636 20.438C113.064 20.7389 113.365 20.921 113.539 20.9844H110.617ZM115.449 14.3325C115.449 12.9335 115.746 11.6863 116.34 10.5909C116.947 9.49545 117.791 8.64417 118.874 8.03706C119.969 7.42995 121.23 7.12639 122.655 7.12639C123.843 7.12639 124.951 7.39035 125.981 7.91828C127.024 8.433 127.855 9.21169 128.475 10.2543C129.109 11.297 129.426 12.5508 129.426 14.0158C129.426 15.4148 129.122 16.662 128.515 17.7574C127.921 18.8529 127.076 19.7042 125.981 20.3113C124.899 20.9184 123.645 21.2219 122.219 21.2219C121.032 21.2219 119.916 20.9646 118.874 20.4499C117.844 19.9219 117.013 19.1366 116.379 18.094C115.759 17.0513 115.449 15.7975 115.449 14.3325ZM127.842 14.3127C127.842 13.1117 127.591 12.0295 127.09 11.066C126.601 10.0894 125.921 9.33047 125.05 8.78935C124.193 8.23503 123.222 7.95787 122.14 7.95787C121.15 7.95787 120.266 8.20863 119.487 8.71016C118.722 9.21169 118.121 9.92439 117.686 10.8483C117.25 11.7589 117.033 12.8214 117.033 14.0356C117.033 15.2366 117.277 16.3255 117.765 17.3021C118.267 18.2656 118.946 19.0245 119.804 19.5788C120.675 20.1199 121.652 20.3905 122.734 20.3905C123.724 20.3905 124.602 20.1397 125.367 19.6382C126.146 19.1366 126.753 18.4305 127.189 17.5199C127.624 16.596 127.842 15.527 127.842 14.3127ZM132.917 9.20509C132.917 8.67717 132.851 8.28122 132.719 8.01726C132.6 7.7401 132.462 7.55533 132.303 7.46294C132.145 7.37056 132.066 7.33756 132.066 7.36396H135.213C135.213 7.33756 135.134 7.37056 134.976 7.46294C134.818 7.55533 134.672 7.7401 134.54 8.01726C134.408 8.28122 134.342 8.67717 134.342 9.20509V20.1925H137.589C138.183 20.1925 138.691 20.0737 139.113 19.8361C139.549 19.5854 139.859 19.2686 140.044 18.8859L139.688 20.9844H132.066C132.066 21.024 132.145 20.9976 132.303 20.9052C132.462 20.7996 132.6 20.6016 132.719 20.3113C132.851 20.0077 132.917 19.5722 132.917 19.0047V9.20509ZM144.729 15.6985L143.462 18.8463C143.264 19.3346 143.165 19.7372 143.165 20.0539C143.165 20.4894 143.363 20.7996 143.759 20.9844H140.928C141.06 20.9844 141.252 20.8524 141.502 20.5884C141.753 20.3245 142.044 19.8031 142.374 19.0245L147.541 6.73045L152.668 19.0839C152.958 19.7965 153.236 20.2849 153.5 20.5488C153.777 20.8128 153.994 20.958 154.153 20.9844H150.866C151.196 20.826 151.361 20.5818 151.361 20.2519C151.361 19.9747 151.256 19.5788 151.045 19.0641L149.659 15.6985H144.729ZM149.342 14.8869L147.184 9.60103L145.066 14.8869H149.342ZM164.911 7.36396C164.779 7.39035 164.568 7.53553 164.278 7.79949C163.987 8.06346 163.638 8.55178 163.229 9.26448L159.804 15.1442V19.1432C159.804 19.8163 159.896 20.2849 160.081 20.5488C160.266 20.8128 160.437 20.958 160.596 20.9844H157.586C157.745 20.958 157.916 20.8194 158.101 20.5686C158.286 20.3047 158.378 19.8295 158.378 19.1432V15.1244L154.993 9.24468C154.597 8.55838 154.254 8.08985 153.963 7.83909C153.673 7.57513 153.442 7.41675 153.271 7.36396H156.597C156.267 7.42995 156.102 7.64112 156.102 7.99747C156.102 8.11625 156.141 8.26143 156.22 8.433C156.3 8.59138 156.425 8.82235 156.597 9.1259L159.467 14.1742L162.338 9.20509C162.562 8.83554 162.674 8.4594 162.674 8.07665C162.674 7.82589 162.595 7.65432 162.437 7.56193C162.291 7.45634 162.146 7.39035 162.001 7.36396H164.911ZM167.001 9.20509C167.001 8.67717 166.935 8.28122 166.803 8.01726C166.685 7.7401 166.546 7.55533 166.388 7.46294C166.229 7.37056 166.15 7.33756 166.15 7.36396H169.298C169.298 7.33756 169.219 7.37056 169.06 7.46294C168.902 7.55533 168.757 7.7401 168.625 8.01726C168.493 8.28122 168.427 8.67717 168.427 9.20509V20.1925H171.673C172.267 20.1925 172.775 20.0737 173.198 19.8361C173.633 19.5854 173.943 19.2686 174.128 18.8859L173.772 20.9844H166.15C166.15 21.024 166.229 20.9976 166.388 20.9052C166.546 20.7996 166.685 20.6016 166.803 20.3113C166.935 20.0077 167.001 19.5722 167.001 19.0047V9.20509ZM176.145 20.9844C176.145 21.024 176.224 20.9976 176.382 20.9052C176.541 20.7996 176.686 20.6148 176.818 20.3509C176.95 20.0737 177.016 19.6712 177.016 19.1432V9.20509C177.016 8.67717 176.95 8.28122 176.818 8.01726C176.699 7.7401 176.561 7.55533 176.402 7.46294C176.244 7.37056 176.165 7.33756 176.165 7.36396H179.312C179.312 7.33756 179.233 7.37056 179.075 7.46294C178.916 7.55533 178.771 7.7401 178.639 8.01726C178.507 8.28122 178.441 8.67717 178.441 9.20509V19.1432C178.441 19.6712 178.507 20.0737 178.639 20.3509C178.771 20.6148 178.916 20.793 179.075 20.8854C179.233 20.9778 179.312 21.0108 179.312 20.9844H176.145Z" fill="url(#paint0_linear_2031_509)"/>
<path d="M76.9483 39.5293C76.9483 39.5684 77.0265 39.5423 77.1828 39.4511C77.3391 39.3469 77.4824 39.1645 77.6127 38.904C77.743 38.6304 77.8081 38.2331 77.8081 37.712V33.2763H70.4609V37.712C70.4609 38.2331 70.526 38.6304 70.6563 38.904C70.7865 39.1645 70.9298 39.3404 71.0862 39.4316C71.2425 39.5228 71.3206 39.5554 71.3206 39.5293H68.2137C68.2137 39.5684 68.2918 39.5423 68.4482 39.4511C68.6045 39.3469 68.7413 39.1645 68.8585 38.904C68.9888 38.6304 69.0539 38.2331 69.0539 37.712V27.9026C69.0539 27.3816 68.9888 26.9908 68.8585 26.7302C68.7413 26.4566 68.6045 26.2743 68.4482 26.1831C68.2918 26.0919 68.2137 26.0593 68.2137 26.0854H71.3206C71.3206 26.0593 71.2425 26.0919 71.0862 26.1831C70.9298 26.2743 70.7865 26.4566 70.6563 26.7302C70.526 26.9908 70.4609 27.3816 70.4609 27.9026V32.4165H77.8081V27.9026C77.8081 27.3816 77.743 26.9908 77.6127 26.7302C77.4824 26.4566 77.3391 26.2743 77.1828 26.1831C77.0265 26.0919 76.9483 26.0593 76.9483 26.0854H80.0553C80.0553 26.0463 79.9771 26.0789 79.8208 26.1831C79.6645 26.2743 79.5212 26.4566 79.3909 26.7302C79.2737 26.9908 79.215 27.3816 79.215 27.9026V37.712C79.215 38.2331 79.2802 38.6304 79.4104 38.904C79.5407 39.1645 79.684 39.3404 79.8403 39.4316C79.9967 39.5228 80.0748 39.5554 80.0748 39.5293H76.9483ZM89.5185 36.3892C89.5185 37.0812 89.3871 37.6768 89.1244 38.176C88.8616 38.6665 88.4893 39.0432 88.0076 39.3059C87.5346 39.56 86.9828 39.687 86.3522 39.687C85.3099 39.687 84.504 39.3979 83.9347 38.8198C83.3654 38.2417 83.0807 37.4403 83.0807 36.4155V31.712C83.0807 31.3616 83.0369 31.0988 82.9493 30.9237C82.8705 30.7397 82.7785 30.6171 82.6734 30.5558C82.5771 30.4945 82.5289 30.4726 82.5289 30.4901H84.5785C84.5785 30.4726 84.5259 30.4945 84.4208 30.5558C84.3245 30.6171 84.2325 30.7353 84.1449 30.9105C84.0661 31.0857 84.0267 31.3397 84.0267 31.6725V36.4155C84.0267 37.2651 84.2281 37.922 84.631 38.3863C85.0427 38.8505 85.6427 39.0826 86.431 39.0826C87.158 39.0826 87.7317 38.8636 88.1521 38.4257C88.5726 37.979 88.7828 37.322 88.7828 36.4549V31.712C88.7828 31.3616 88.739 31.0988 88.6514 30.9237C88.5638 30.7397 88.4674 30.6171 88.3623 30.5558C88.2572 30.4945 88.2047 30.4726 88.2047 30.4901H90.0966C90.0966 30.4726 90.0441 30.4945 89.9389 30.5558C89.8338 30.6171 89.7375 30.7397 89.6499 30.9237C89.5623 31.0988 89.5185 31.3616 89.5185 31.712V36.3892ZM97.2428 39.5293L93.1173 34.9309V38.3206C93.1173 38.7585 93.1786 39.0651 93.3012 39.2403C93.4239 39.4154 93.5377 39.5118 93.6428 39.5293H91.6195C91.7246 39.5118 91.8429 39.4198 91.9743 39.2534C92.1057 39.0782 92.1713 38.7673 92.1713 38.3206V31.712C92.1713 31.2653 92.11 30.9587 91.9874 30.7923C91.8648 30.6259 91.7422 30.5251 91.6195 30.4901H93.6428C93.5377 30.5076 93.4239 30.604 93.3012 30.7791C93.1786 30.9456 93.1173 31.2565 93.1173 31.712V34.8914L96.2311 31.7908C96.7304 31.2915 96.98 30.9499 96.98 30.766C96.98 30.6083 96.9187 30.5164 96.7961 30.4901H98.8588C98.7186 30.5076 98.4953 30.604 98.1887 30.7791C97.8909 30.9456 97.5055 31.2653 97.0325 31.7382L94.0895 34.655L97.4136 38.268C97.8165 38.7322 98.1318 39.0519 98.3595 39.2271C98.596 39.3935 98.7624 39.4943 98.8588 39.5293H97.2428ZM107.071 36.3892C107.071 37.0812 106.94 37.6768 106.677 38.176C106.414 38.6665 106.042 39.0432 105.56 39.3059C105.087 39.56 104.535 39.687 103.905 39.687C102.862 39.687 102.057 39.3979 101.487 38.8198C100.918 38.2417 100.633 37.4403 100.633 36.4155V31.712C100.633 31.3616 100.589 31.0988 100.502 30.9237C100.423 30.7397 100.331 30.6171 100.226 30.5558C100.13 30.4945 100.081 30.4726 100.081 30.4901H102.131C102.131 30.4726 102.079 30.4945 101.973 30.5558C101.877 30.6171 101.785 30.7353 101.697 30.9105C101.619 31.0857 101.579 31.3397 101.579 31.6725V36.4155C101.579 37.2651 101.781 37.922 102.184 38.3863C102.595 38.8505 103.195 39.0826 103.984 39.0826C104.711 39.0826 105.284 38.8636 105.705 38.4257C106.125 37.979 106.335 37.322 106.335 36.4549V31.712C106.335 31.3616 106.292 31.0988 106.204 30.9237C106.116 30.7397 106.02 30.6171 105.915 30.5558C105.81 30.4945 105.757 30.4726 105.757 30.4901H107.649C107.649 30.4726 107.597 30.4945 107.492 30.5558C107.386 30.6171 107.29 30.7397 107.202 30.9237C107.115 31.0988 107.071 31.3616 107.071 31.712V36.3892ZM114.795 39.5293L110.67 34.9309V38.3206C110.67 38.7585 110.731 39.0651 110.854 39.2403C110.976 39.4154 111.09 39.5118 111.195 39.5293H109.172C109.277 39.5118 109.395 39.4198 109.527 39.2534C109.658 39.0782 109.724 38.7673 109.724 38.3206V31.712C109.724 31.2653 109.663 30.9587 109.54 30.7923C109.417 30.6259 109.295 30.5251 109.172 30.4901H111.195C111.09 30.5076 110.976 30.604 110.854 30.7791C110.731 30.9456 110.67 31.2565 110.67 31.712V34.8914L113.784 31.7908C114.283 31.2915 114.533 30.9499 114.533 30.766C114.533 30.6083 114.471 30.5164 114.349 30.4901H116.411C116.271 30.5076 116.048 30.604 115.741 30.7791C115.443 30.9456 115.058 31.2653 114.585 31.7382L111.642 34.655L114.966 38.268C115.369 38.7322 115.684 39.0519 115.912 39.2271C116.149 39.3935 116.315 39.4943 116.411 39.5293H114.795ZM132.458 39.1971C132.119 39.3144 131.728 39.399 131.285 39.4511C130.856 39.5032 130.256 39.5293 129.488 39.5293H126.264C126.433 39.4902 126.615 39.3469 126.811 39.0994C127.006 38.8389 127.104 38.3438 127.104 37.6143V27.9417C127.104 27.2643 127.013 26.8019 126.83 26.5543C126.648 26.2938 126.465 26.1375 126.283 26.0854H129.488C130.321 26.0854 130.953 26.1245 131.383 26.2026C131.826 26.2678 132.21 26.372 132.536 26.5153C133.109 26.7888 133.552 27.1731 133.865 27.6682C134.177 28.1632 134.334 28.6973 134.334 29.2705C134.334 30.1433 134.067 30.8989 133.533 31.5372C133.012 32.1625 132.321 32.5663 131.461 32.7487C132.048 32.8138 132.601 32.9832 133.122 33.2568C133.656 33.5303 134.086 33.9016 134.412 34.3706C134.751 34.8396 134.92 35.3737 134.92 35.9729C134.92 36.8066 134.699 37.4906 134.256 38.0247C133.813 38.5458 133.213 38.9366 132.458 39.1971ZM131.911 27.4532C131.65 27.2578 131.37 27.1145 131.071 27.0233C130.771 26.9191 130.367 26.867 129.859 26.867H128.511V32.4165H130.093C130.562 32.4165 130.953 32.3449 131.266 32.2016C131.579 32.0583 131.852 31.8694 132.087 31.6349C132.334 31.3874 132.53 31.0878 132.673 30.736C132.816 30.3843 132.888 30.0261 132.888 29.6613C132.888 29.2184 132.803 28.8015 132.634 28.4107C132.477 28.0199 132.236 27.7007 131.911 27.4532ZM132.321 33.7648C132.074 33.5694 131.767 33.4261 131.403 33.3349C131.038 33.2437 130.543 33.1981 129.918 33.1981H128.511V38.7477H130.367C131.305 38.7477 132.035 38.5262 132.556 38.0833C133.09 37.6404 133.357 36.9369 133.357 35.9729C133.357 35.074 133.012 34.338 132.321 33.7648ZM144.286 36.3892C144.286 37.0812 144.155 37.6768 143.892 38.176C143.629 38.6665 143.257 39.0432 142.775 39.3059C142.302 39.56 141.75 39.687 141.12 39.687C140.078 39.687 139.272 39.3979 138.702 38.8198C138.133 38.2417 137.848 37.4403 137.848 36.4155V31.712C137.848 31.3616 137.805 31.0988 137.717 30.9237C137.638 30.7397 137.546 30.6171 137.441 30.5558C137.345 30.4945 137.297 30.4726 137.297 30.4901H139.346C139.346 30.4726 139.294 30.4945 139.188 30.5558C139.092 30.6171 139 30.7353 138.913 30.9105C138.834 31.0857 138.794 31.3397 138.794 31.6725V36.4155C138.794 37.2651 138.996 37.922 139.399 38.3863C139.81 38.8505 140.41 39.0826 141.199 39.0826C141.926 39.0826 142.499 38.8636 142.92 38.4257C143.34 37.979 143.55 37.322 143.55 36.4549V31.712C143.55 31.3616 143.507 31.0988 143.419 30.9237C143.331 30.7397 143.235 30.6171 143.13 30.5558C143.025 30.4945 142.972 30.4726 142.972 30.4901H144.864C144.864 30.4726 144.812 30.4945 144.707 30.5558C144.601 30.6171 144.505 30.7397 144.418 30.9237C144.33 31.0988 144.286 31.3616 144.286 31.712V36.3892ZM139.622 29.7938C139.464 29.7938 139.337 29.7412 139.241 29.6361C139.153 29.531 139.11 29.4084 139.11 29.2682C139.11 29.1281 139.153 29.0055 139.241 28.9003C139.337 28.7952 139.464 28.7427 139.622 28.7427C139.78 28.7427 139.902 28.7952 139.99 28.9003C140.086 29.0055 140.134 29.1281 140.134 29.2682C140.134 29.4084 140.086 29.531 139.99 29.6361C139.902 29.7412 139.78 29.7938 139.622 29.7938ZM142.618 29.7938C142.46 29.7938 142.333 29.7412 142.237 29.6361C142.149 29.531 142.105 29.4084 142.105 29.2682C142.105 29.1281 142.149 29.0055 142.237 28.9003C142.333 28.7952 142.46 28.7427 142.618 28.7427C142.775 28.7427 142.898 28.7952 142.985 28.9003C143.082 29.0055 143.13 29.1281 143.13 29.2682C143.13 29.4084 143.082 29.531 142.985 29.6361C142.898 29.7412 142.775 29.7938 142.618 29.7938ZM149.015 34.9834C149.418 34.9834 149.768 34.8914 150.066 34.7075C150.364 34.5148 150.587 34.2696 150.736 33.9718C150.894 33.6652 150.972 33.3455 150.972 33.0127C150.972 32.6711 150.898 32.3514 150.749 32.0536C150.609 31.747 150.39 31.4974 150.092 31.3047C149.794 31.112 149.431 31.0156 149.002 31.0156H147.885V38.3206C147.885 38.6709 147.929 38.9381 148.016 39.122C148.104 39.2972 148.2 39.4154 148.305 39.4767C148.41 39.5293 148.463 39.5468 148.463 39.5293H146.374C146.374 39.5468 146.427 39.5249 146.532 39.4636C146.637 39.4023 146.729 39.284 146.808 39.1089C146.895 38.9337 146.939 38.6709 146.939 38.3206V31.7514C146.939 31.3923 146.895 31.1207 146.808 30.9368C146.729 30.7441 146.637 30.6171 146.532 30.5558C146.427 30.4857 146.374 30.4638 146.374 30.4901H148.975C149.659 30.4901 150.219 30.604 150.657 30.8317C151.104 31.0507 151.424 31.3397 151.616 31.6988C151.818 32.0492 151.918 32.4346 151.918 32.855C151.918 33.2054 151.835 33.5513 151.669 33.8929C151.502 34.2258 151.262 34.5192 150.946 34.7732C150.64 35.0185 150.281 35.1893 149.869 35.2856L149.659 35.325L151.971 38.268C152.278 38.6096 152.532 38.8724 152.733 39.0563C152.934 39.2403 153.079 39.3629 153.167 39.4242C153.263 39.4855 153.32 39.5205 153.337 39.5293H151.8L148.227 34.9834H149.015ZM153.88 35.1148C153.88 34.1864 154.077 33.3586 154.471 32.6316C154.874 31.9047 155.435 31.3397 156.153 30.9368C156.88 30.5339 157.716 30.3324 158.662 30.3324C159.451 30.3324 160.186 30.5076 160.87 30.858C161.562 31.1996 162.113 31.7163 162.525 32.4083C162.946 33.1002 163.156 33.9323 163.156 34.9046C163.156 35.833 162.954 36.6608 162.551 37.3877C162.157 38.1147 161.597 38.6797 160.87 39.0826C160.151 39.4855 159.319 39.687 158.373 39.687C157.585 39.687 156.845 39.5162 156.153 39.1746C155.47 38.8242 154.918 38.303 154.498 37.6111C154.086 36.9191 153.88 36.087 153.88 35.1148ZM162.105 35.1017C162.105 34.3046 161.938 33.5864 161.605 32.947C161.281 32.2988 160.83 31.7952 160.252 31.4361C159.683 31.0682 159.039 30.8842 158.321 30.8842C157.664 30.8842 157.077 31.0507 156.56 31.3835C156.052 31.7163 155.654 32.1893 155.365 32.8024C155.076 33.4068 154.931 34.1119 154.931 34.9177C154.931 35.7148 155.093 36.4374 155.417 37.0856C155.75 37.725 156.201 38.2286 156.771 38.5965C157.349 38.9556 157.997 39.1351 158.715 39.1351C159.372 39.1351 159.954 38.9687 160.462 38.6359C160.979 38.303 161.382 37.8344 161.671 37.2301C161.96 36.617 162.105 35.9075 162.105 35.1017ZM167.036 39.687C166.581 39.687 166.143 39.6256 165.722 39.503C165.302 39.3716 164.925 39.1921 164.593 38.9643V37.3746C164.82 37.9614 165.166 38.4082 165.63 38.7147C166.103 39.0125 166.594 39.1614 167.102 39.1614C167.61 39.1614 168.035 38.995 168.376 38.6622C168.718 38.3206 168.889 37.9001 168.889 37.4009C168.889 37.068 168.819 36.7834 168.679 36.5469C168.547 36.3104 168.333 36.0914 168.035 35.89C167.737 35.6798 167.317 35.4476 166.774 35.1936C166.012 34.8433 165.455 34.4798 165.105 34.1031C164.763 33.7178 164.593 33.2535 164.593 32.7105C164.593 32.2463 164.702 31.8346 164.921 31.4755C165.149 31.1076 165.451 30.8273 165.828 30.6346C166.213 30.4332 166.633 30.3324 167.089 30.3324C167.483 30.3324 167.868 30.3894 168.245 30.5032C168.622 30.6083 168.972 30.7616 169.296 30.9631V32.382C169.086 31.9003 168.766 31.528 168.337 31.2653C167.917 30.9937 167.487 30.858 167.049 30.858C166.55 30.858 166.147 31.02 165.841 31.3441C165.534 31.6682 165.381 32.0536 165.381 32.5003C165.381 32.8243 165.473 33.1046 165.657 33.3411C165.841 33.5689 166.064 33.7615 166.327 33.9192C166.598 34.0769 166.975 34.2696 167.457 34.4973C167.947 34.7338 168.35 34.9528 168.665 35.1542C168.981 35.3557 169.244 35.6184 169.454 35.9425C169.664 36.2666 169.769 36.6607 169.769 37.125C169.769 37.6505 169.642 38.106 169.388 38.4914C169.143 38.8768 168.81 39.1746 168.39 39.3848C167.978 39.5862 167.527 39.687 167.036 39.687ZM178.326 36.3892C178.326 37.0812 178.195 37.6768 177.932 38.176C177.669 38.6665 177.297 39.0432 176.815 39.3059C176.342 39.56 175.791 39.687 175.16 39.687C174.118 39.687 173.312 39.3979 172.743 38.8198C172.173 38.2417 171.889 37.4403 171.889 36.4155V31.712C171.889 31.3616 171.845 31.0988 171.757 30.9237C171.678 30.7397 171.586 30.6171 171.481 30.5558C171.385 30.4945 171.337 30.4726 171.337 30.4901H173.386C173.386 30.4726 173.334 30.4945 173.229 30.5558C173.132 30.6171 173.04 30.7353 172.953 30.9105C172.874 31.0857 172.835 31.3397 172.835 31.6725V36.4155C172.835 37.2651 173.036 37.922 173.439 38.3863C173.851 38.8505 174.451 39.0826 175.239 39.0826C175.966 39.0826 176.54 38.8636 176.96 38.4257C177.38 37.979 177.591 37.322 177.591 36.4549V31.712C177.591 31.3616 177.547 31.0988 177.459 30.9237C177.372 30.7397 177.275 30.6171 177.17 30.5558C177.065 30.4945 177.013 30.4726 177.013 30.4901H178.904C178.904 30.4726 178.852 30.4945 178.747 30.5558C178.642 30.6171 178.545 30.7397 178.458 30.9237C178.37 31.0988 178.326 31.3616 178.326 31.712V36.3892Z" fill="url(#paint1_linear_2031_509)"/>
<line x1="60.0439" y1="7.28516" x2="60.0439" y2="33.3915" stroke="#E1A122" stroke-width="0.314319"/>
</g>
</g>
<defs>
<linearGradient id="paint0_linear_2031_509" x1="181.553" y1="12.9844" x2="66.5527" y2="12.9844" gradientUnits="userSpaceOnUse">
<stop stop-color="#7B5813"/>
<stop offset="0.390824" stop-color="#F7A80B"/>
<stop offset="0.727263" stop-color="#AE7D1A"/>
<stop offset="1" stop-color="#EABB5D"/>
</linearGradient>
<linearGradient id="paint1_linear_2031_509" x1="181.565" y1="33.0293" x2="66.5527" y2="33.0293" gradientUnits="userSpaceOnUse">
<stop stop-color="#7B5813"/>
<stop offset="0.390824" stop-color="#F7A80B"/>
<stop offset="0.727263" stop-color="#AE7D1A"/>
<stop offset="1" stop-color="#EABB5D"/>
</linearGradient>
<clipPath id="clip0_2031_509">
<rect width="179.442" height="44.3066" fill="white"/>
</clipPath>
<clipPath id="clip1_2031_509">
<rect width="185.295" height="40.4281" fill="white" transform="translate(0.691406 1.01367)"/>
</clipPath>
</defs>
</svg>
