<svg width="243" height="60" viewBox="0 0 243 60" fill="none" xmlns="http://www.w3.org/2000/svg">
<g clip-path="url(#clip0_2031_509)">
<line x1="6.5182" y1="54.4027" x2="59.1443" y2="54.4027" stroke="#E1A122" stroke-width="2.27273" stroke-linecap="round"/>
<line x1="28.9039" y1="18.6637" x2="28.9039" y2="46.8242" stroke="#E1A122" stroke-width="2.27273" stroke-linecap="round"/>
<line x1="37.2799" y1="18.6637" x2="37.2799" y2="46.8242" stroke="#E1A122" stroke-width="2.27273" stroke-linecap="round"/>
<line x1="45.1881" y1="18.6637" x2="45.1881" y2="36.4585" stroke="#E1A122" stroke-width="2.27273" stroke-linecap="round"/>
<line x1="19.8649" y1="10.3871" x2="45.7935" y2="10.3871" stroke="#E1A122" stroke-width="2.27273" stroke-linecap="round"/>
<path d="M57.5551 12.3407C57.1945 12.3407 56.87 12.2235 56.5816 11.9892C56.3112 11.7368 56.176 11.3943 56.176 10.9616C56.176 10.5289 56.3112 10.1954 56.5816 9.96107C56.852 9.7267 57.1765 9.60952 57.5551 9.60952C57.9337 9.60952 58.2582 9.7267 58.5286 9.96107C58.799 10.1954 58.9342 10.5289 58.9342 10.9616C58.9342 11.3943 58.79 11.7368 58.5015 11.9892C58.2311 12.2235 57.9156 12.3407 57.5551 12.3407Z" fill="#E1A122"/>
<path d="M6.5502 12.3407C6.18964 12.3407 5.86514 12.2235 5.5767 11.9892C5.30628 11.7368 5.17107 11.3943 5.17107 10.9616C5.17107 10.5289 5.30628 10.1954 5.5767 9.96107C5.84711 9.7267 6.17161 9.60952 6.5502 9.60952C6.92878 9.60952 7.25328 9.7267 7.52369 9.96107C7.79411 10.1954 7.92932 10.5289 7.92932 10.9616C7.92932 11.3943 7.7851 11.7368 7.49665 11.9892C7.22624 12.2235 6.91075 12.3407 6.5502 12.3407Z" fill="#E1A122"/>
<line x1="21.2291" y1="18.6637" x2="21.2291" y2="36.4585" stroke="#E1A122" stroke-width="2.27273" stroke-linecap="round"/>
<line x1="6.5182" y1="5.19567" x2="57.5729" y2="5.19567" stroke="#E1A122" stroke-width="2.27273" stroke-linecap="round"/>
<path d="M57.7285 4.07031C61.4429 4.0708 64.4546 7.08251 64.4551 10.7969C64.4551 14.5117 61.4432 17.523 57.7285 17.5234C54.0135 17.5233 51.002 14.5119 51.002 10.7969C51.002 10.2746 51.0631 9.76635 51.1758 9.27832H53.54C53.3681 9.75216 53.2745 10.2637 53.2744 10.7969C53.2744 13.2567 55.2687 15.2509 57.7285 15.251C60.188 15.2505 62.1826 13.2565 62.1826 10.7969C62.1821 8.33836 60.1887 6.34431 57.7305 6.34277V6.32031H55.2998V4.52344C56.053 4.23178 56.8724 4.07033 57.7285 4.07031Z" fill="#E1A122"/>
<path d="M6.72852 4.07031C3.01386 4.07045 0.00244236 7.0823 0.00195312 10.7969C0.00195312 14.5119 3.01356 17.5233 6.72852 17.5234C10.4435 17.5233 13.4551 14.5119 13.4551 10.7969C13.455 10.2746 13.393 9.7664 13.2803 9.27832H10.916C11.088 9.75222 11.1825 10.2636 11.1826 10.7969C11.1826 13.2567 9.18832 15.2509 6.72852 15.251C4.26875 15.2508 2.27441 13.2567 2.27441 10.7969C2.2749 8.33782 4.26852 6.34344 6.72754 6.34277V6.32031H9.15625V4.52344C8.40315 4.23185 7.58455 4.07033 6.72852 4.07031Z" fill="#E1A122"/>
<path d="M100.938 13.6332C99.6479 13.6332 98.8741 14.0631 98.6161 14.923V12.7734H109.536L100.594 26.7027H107.214C107.859 26.7027 108.411 26.5737 108.87 26.3157C109.343 26.0435 109.679 25.6995 109.88 25.2839L109.493 27.5625H98.1432L107.107 13.6332H100.938ZM124.255 26.2513C123.71 26.6955 123.001 27.0681 122.127 27.369C121.252 27.67 120.371 27.8204 119.483 27.8204C118.15 27.8204 116.91 27.5123 115.764 26.8961C114.617 26.2799 113.693 25.3914 112.991 24.2306C112.303 23.0699 111.959 21.7085 111.959 20.1464C111.959 18.6847 112.274 17.3735 112.905 16.2127C113.55 15.0519 114.46 14.1491 115.635 13.5042C116.824 12.845 118.207 12.5154 119.783 12.5154C121.46 12.5154 122.951 12.8809 124.255 13.6117V15.9978C123.81 15.2096 123.165 14.5862 122.32 14.1276C121.474 13.6547 120.572 13.4183 119.612 13.4183C118.393 13.4183 117.333 13.7049 116.43 14.2781C115.542 14.8513 114.861 15.6395 114.388 16.6426C113.915 17.6314 113.679 18.7421 113.679 19.9745C113.679 21.3645 113.944 22.5755 114.474 23.6073C115.019 24.6391 115.749 25.4344 116.667 25.9933C117.584 26.5379 118.608 26.8101 119.74 26.8101C121.56 26.8101 123.065 26.2799 124.255 25.2195V26.2513ZM136.767 27.5625L130.018 20.039V25.5849C130.018 26.3014 130.118 26.803 130.319 27.0896C130.519 27.3762 130.706 27.5338 130.877 27.5625H127.567C127.739 27.5338 127.933 27.3834 128.148 27.1111C128.362 26.8245 128.47 26.3157 128.47 25.5849V14.7725C128.47 14.0416 128.37 13.5401 128.169 13.2678C127.968 12.9955 127.768 12.8307 127.567 12.7734H130.877C130.706 12.802 130.519 12.9597 130.319 13.2463C130.118 13.5186 130.018 14.0273 130.018 14.7725V19.9745L135.112 14.9015C135.929 14.0846 136.337 13.5257 136.337 13.2248C136.337 12.9668 136.237 12.8164 136.036 12.7734H139.411C139.182 12.802 138.817 12.9597 138.315 13.2463C137.828 13.5186 137.197 14.0416 136.423 14.8155L131.608 19.5876L137.047 25.4989C137.706 26.2584 138.222 26.7815 138.594 27.0681C138.981 27.3404 139.254 27.5052 139.411 27.5625H136.767ZM141.14 21.5437C141.14 20.2778 141.408 19.1493 141.946 18.1581C142.495 17.1669 143.259 16.3966 144.238 15.8473C145.23 15.2979 146.37 15.0233 147.66 15.0233C148.735 15.0233 149.738 15.2621 150.669 15.7398C151.613 16.2055 152.365 16.9101 152.926 17.8536C153.5 18.797 153.786 19.9315 153.786 21.2571C153.786 22.5229 153.512 23.6515 152.962 24.6427C152.425 25.6338 151.661 26.4041 150.669 26.9535C149.69 27.5028 148.556 27.7775 147.266 27.7775C146.191 27.7775 145.182 27.5446 144.238 27.0788C143.307 26.6012 142.555 25.8906 141.981 24.9472C141.42 24.0037 141.14 22.8692 141.14 21.5437ZM152.353 21.5258C152.353 20.439 152.126 19.4598 151.672 18.588C151.231 17.7043 150.616 17.0176 149.827 16.528C149.051 16.0264 148.173 15.7756 147.194 15.7756C146.299 15.7756 145.498 16.0025 144.794 16.4563C144.101 16.9101 143.558 17.555 143.164 18.391C142.77 19.215 142.573 20.1763 142.573 21.275C142.573 22.3617 142.793 23.3469 143.235 24.2306C143.689 25.1024 144.304 25.7891 145.08 26.2907C145.869 26.7803 146.752 27.0251 147.732 27.0251C148.627 27.0251 149.421 26.7982 150.114 26.3444C150.819 25.8906 151.368 25.2517 151.762 24.4277C152.156 23.5917 152.353 22.6244 152.353 21.5258ZM156.945 16.9042C156.945 16.4265 156.886 16.0682 156.766 15.8294C156.659 15.5786 156.533 15.4114 156.39 15.3278C156.247 15.2442 156.175 15.2144 156.175 15.2382H159.023C159.023 15.2144 158.952 15.2442 158.808 15.3278C158.665 15.4114 158.534 15.5786 158.414 15.8294C158.295 16.0682 158.235 16.4265 158.235 16.9042V26.846H161.173C161.71 26.846 162.17 26.7385 162.552 26.5235C162.946 26.2966 163.227 26.01 163.394 25.6637L163.072 27.5625H156.175C156.175 27.5983 156.247 27.5744 156.39 27.4908C156.533 27.3953 156.659 27.2162 156.766 26.9535C156.886 26.6788 156.945 26.2847 156.945 25.7712V16.9042ZM167.634 22.7797L166.487 25.6279C166.308 26.0697 166.219 26.434 166.219 26.7206C166.219 27.1147 166.398 27.3953 166.756 27.5625H164.194C164.314 27.5625 164.487 27.4431 164.714 27.2042C164.941 26.9654 165.203 26.4937 165.502 25.7891L170.177 14.665L174.817 25.8428C175.08 26.4877 175.33 26.9296 175.569 27.1684C175.82 27.4073 176.017 27.5386 176.16 27.5625H173.187C173.485 27.4192 173.635 27.1983 173.635 26.8997C173.635 26.6489 173.539 26.2907 173.348 25.8249L172.094 22.7797H167.634ZM171.807 22.0452L169.855 17.2624L167.938 22.0452H171.807ZM185.895 15.2382C185.776 15.2621 185.585 15.3935 185.322 15.6323C185.059 15.8712 184.743 16.313 184.372 16.9579L181.273 22.2781V25.8966C181.273 26.5056 181.357 26.9296 181.524 27.1684C181.691 27.4073 181.847 27.5386 181.99 27.5625H179.267C179.41 27.5386 179.566 27.4132 179.733 27.1863C179.9 26.9475 179.984 26.5176 179.984 25.8966V22.2602L176.921 16.94C176.562 16.319 176.252 15.8951 175.989 15.6682C175.726 15.4293 175.517 15.286 175.362 15.2382H178.371C178.073 15.2979 177.924 15.489 177.924 15.8115C177.924 15.9189 177.959 16.0503 178.031 16.2055C178.103 16.3489 178.216 16.5578 178.371 16.8325L180.969 21.4004L183.566 16.9042C183.769 16.5698 183.871 16.2294 183.871 15.8831C183.871 15.6562 183.799 15.501 183.656 15.4174C183.525 15.3218 183.393 15.2621 183.262 15.2382H185.895ZM187.786 16.9042C187.786 16.4265 187.726 16.0682 187.607 15.8294C187.5 15.5786 187.374 15.4114 187.231 15.3278C187.087 15.2442 187.016 15.2144 187.016 15.2382H189.864C189.864 15.2144 189.792 15.2442 189.649 15.3278C189.506 15.4114 189.374 15.5786 189.255 15.8294C189.136 16.0682 189.076 16.4265 189.076 16.9042V26.846H192.014C192.551 26.846 193.011 26.7385 193.393 26.5235C193.787 26.2966 194.068 26.01 194.235 25.6637L193.912 27.5625H187.016C187.016 27.5983 187.087 27.5744 187.231 27.4908C187.374 27.3953 187.5 27.2162 187.607 26.9535C187.726 26.6788 187.786 26.2847 187.786 25.7712V16.9042ZM196.059 27.5625C196.059 27.5983 196.131 27.5744 196.274 27.4908C196.418 27.3953 196.549 27.2281 196.669 26.9893C196.788 26.7385 196.848 26.3743 196.848 25.8966V16.9042C196.848 16.4265 196.788 16.0682 196.669 15.8294C196.561 15.5786 196.436 15.4114 196.292 15.3278C196.149 15.2442 196.077 15.2144 196.077 15.2382H198.926C198.926 15.2144 198.854 15.2442 198.711 15.3278C198.567 15.4114 198.436 15.5786 198.317 15.8294C198.197 16.0682 198.137 16.4265 198.137 16.9042V25.8966C198.137 26.3743 198.197 26.7385 198.317 26.9893C198.436 27.2281 198.567 27.3893 198.711 27.4729C198.854 27.5565 198.926 27.5864 198.926 27.5625H196.059ZM108.332 45.5625C108.332 45.6055 108.418 45.5768 108.59 45.4765C108.762 45.3619 108.92 45.1612 109.063 44.8746C109.206 44.5737 109.278 44.1366 109.278 43.5634V38.6838H101.196V43.5634C101.196 44.1366 101.267 44.5737 101.411 44.8746C101.554 45.1612 101.712 45.3547 101.884 45.455C102.055 45.5553 102.141 45.5912 102.141 45.5625H98.7236C98.7236 45.6055 98.8096 45.5768 98.9816 45.4765C99.1535 45.3619 99.304 45.1612 99.433 44.8746C99.5763 44.5737 99.6479 44.1366 99.6479 43.5634V32.7725C99.6479 32.1993 99.5763 31.7694 99.433 31.4827C99.304 31.1818 99.1535 30.9812 98.9816 30.8809C98.8096 30.7805 98.7236 30.7447 98.7236 30.7734H102.141C102.141 30.7447 102.055 30.7805 101.884 30.8809C101.712 30.9812 101.554 31.1818 101.411 31.4827C101.267 31.7694 101.196 32.1993 101.196 32.7725V37.738H109.278V32.7725C109.278 32.1993 109.206 31.7694 109.063 31.4827C108.92 31.1818 108.762 30.9812 108.59 30.8809C108.418 30.7805 108.332 30.7447 108.332 30.7734H111.75C111.75 30.7304 111.664 30.7662 111.492 30.8809C111.32 30.9812 111.163 31.1818 111.019 31.4827C110.89 31.7694 110.826 32.1993 110.826 32.7725V43.5634C110.826 44.1366 110.897 44.5737 111.041 44.8746C111.184 45.1612 111.342 45.3547 111.514 45.455C111.686 45.5553 111.772 45.5912 111.772 45.5625H108.332ZM122.16 42.1082C122.16 42.8694 122.016 43.5246 121.727 44.0738C121.438 44.6134 121.028 45.0277 120.498 45.3168C119.978 45.5962 119.371 45.7359 118.677 45.7359C117.53 45.7359 116.644 45.418 116.018 44.782C115.391 44.1461 115.078 43.2645 115.078 42.1371V36.963C115.078 36.5775 115.03 36.2885 114.934 36.0958C114.847 35.8934 114.746 35.7585 114.63 35.6911C114.524 35.6236 114.471 35.5996 114.471 35.6188H116.726C116.726 35.5996 116.668 35.6236 116.552 35.6911C116.446 35.7585 116.345 35.8886 116.249 36.0813C116.162 36.274 116.119 36.5535 116.119 36.9196V42.1371C116.119 43.0718 116.34 43.7944 116.784 44.3051C117.237 44.8158 117.897 45.0711 118.764 45.0711C119.563 45.0711 120.195 44.8302 120.657 44.3484C121.12 43.857 121.351 43.1344 121.351 42.1805V36.963C121.351 36.5775 121.303 36.2885 121.206 36.0958C121.11 35.8934 121.004 35.7585 120.888 35.6911C120.773 35.6236 120.715 35.5996 120.715 35.6188H122.796C122.796 35.5996 122.738 35.6236 122.623 35.6911C122.507 35.7585 122.401 35.8934 122.305 36.0958C122.208 36.2885 122.16 36.5775 122.16 36.963V42.1082ZM130.657 45.5625L126.119 40.5039V44.2328C126.119 44.7146 126.187 45.0518 126.321 45.2445C126.456 45.4372 126.582 45.5432 126.697 45.5625H124.471C124.587 45.5432 124.717 45.4421 124.862 45.259C125.006 45.0663 125.078 44.7242 125.078 44.2328V36.963C125.078 36.4716 125.011 36.1343 124.876 35.9513C124.741 35.7682 124.606 35.6574 124.471 35.6188H126.697C126.582 35.6381 126.456 35.7441 126.321 35.9368C126.187 36.1199 126.119 36.4619 126.119 36.963V40.4606L129.544 37.0497C130.094 36.5005 130.368 36.1247 130.368 35.9223C130.368 35.7489 130.301 35.6477 130.166 35.6188H132.435C132.281 35.6381 132.035 35.7441 131.698 35.9368C131.37 36.1199 130.946 36.4716 130.426 36.9919L127.189 40.2004L130.845 44.175C131.288 44.6857 131.635 45.0374 131.886 45.2301C132.146 45.4132 132.329 45.524 132.435 45.5625H130.657ZM141.469 42.1082C141.469 42.8694 141.325 43.5246 141.036 44.0738C140.746 44.6134 140.337 45.0277 139.807 45.3168C139.287 45.5962 138.68 45.7359 137.986 45.7359C136.839 45.7359 135.953 45.418 135.327 44.782C134.7 44.1461 134.387 43.2645 134.387 42.1371V36.963C134.387 36.5775 134.339 36.2885 134.243 36.0958C134.156 35.8934 134.055 35.7585 133.939 35.6911C133.833 35.6236 133.78 35.5996 133.78 35.6188H136.035C136.035 35.5996 135.977 35.6236 135.861 35.6911C135.755 35.7585 135.654 35.8886 135.558 36.0813C135.471 36.274 135.428 36.5535 135.428 36.9196V42.1371C135.428 43.0718 135.649 43.7944 136.093 44.3051C136.545 44.8158 137.205 45.0711 138.073 45.0711C138.872 45.0711 139.503 44.8302 139.966 44.3484C140.428 43.857 140.66 43.1344 140.66 42.1805V36.963C140.66 36.5775 140.612 36.2885 140.515 36.0958C140.419 35.8934 140.313 35.7585 140.197 35.6911C140.082 35.6236 140.024 35.5996 140.024 35.6188H142.105C142.105 35.5996 142.047 35.6236 141.932 35.6911C141.816 35.7585 141.71 35.8934 141.614 36.0958C141.517 36.2885 141.469 36.5775 141.469 36.963V42.1082ZM149.966 45.5625L145.428 40.5039V44.2328C145.428 44.7146 145.495 45.0518 145.63 45.2445C145.765 45.4372 145.89 45.5432 146.006 45.5625H143.78C143.896 45.5432 144.026 45.4421 144.171 45.259C144.315 45.0663 144.387 44.7242 144.387 44.2328V36.963C144.387 36.4716 144.32 36.1343 144.185 35.9513C144.05 35.7682 143.915 35.6574 143.78 35.6188H146.006C145.89 35.6381 145.765 35.7441 145.63 35.9368C145.495 36.1199 145.428 36.4619 145.428 36.963V40.4606L148.853 37.0497C149.403 36.5005 149.677 36.1247 149.677 35.9223C149.677 35.7489 149.61 35.6477 149.475 35.6188H151.744C151.59 35.6381 151.344 35.7441 151.007 35.9368C150.679 36.1199 150.255 36.4716 149.735 36.9919L146.498 40.2004L150.154 44.175C150.597 44.6857 150.944 45.0374 151.195 45.2301C151.455 45.4132 151.638 45.524 151.744 45.5625H149.966ZM161.645 31.6332V37.738H165.364C165.894 37.738 166.245 37.6592 166.417 37.5016C166.603 37.3439 166.697 37.215 166.697 37.1146V39.2212C166.697 39.1782 166.661 39.1138 166.589 39.0278C166.532 38.9275 166.403 38.8343 166.202 38.7483C166.016 38.648 165.736 38.5979 165.364 38.5979H161.645V43.5634C161.645 44.1223 161.717 44.5522 161.86 44.8531C162.003 45.1397 162.161 45.3404 162.333 45.455C162.505 45.5553 162.591 45.5912 162.591 45.5625H159.173C159.173 45.5912 159.259 45.5553 159.431 45.455C159.603 45.3547 159.753 45.1612 159.882 44.8746C160.026 44.5737 160.097 44.1366 160.097 43.5634V32.88C160.097 32.2924 160.026 31.8482 159.882 31.5472C159.753 31.232 159.603 31.017 159.431 30.9024C159.259 30.7734 159.173 30.7304 159.173 30.7734H166.955V32.966C166.883 32.622 166.682 32.3139 166.353 32.0416C166.023 31.7694 165.557 31.6332 164.955 31.6332H161.645ZM169.224 45.5625C169.224 45.5914 169.282 45.5721 169.397 45.5047C169.513 45.4276 169.619 45.2927 169.715 45.1C169.812 44.8977 169.86 44.6038 169.86 44.2184V36.963C169.86 36.5775 169.812 36.2885 169.715 36.0958C169.629 35.8934 169.527 35.7585 169.412 35.6911C169.296 35.6236 169.238 35.5996 169.238 35.6188H171.536C171.536 35.5996 171.479 35.6236 171.363 35.6911C171.247 35.7585 171.141 35.8934 171.045 36.0958C170.949 36.2885 170.9 36.5775 170.9 36.963V44.2184C170.9 44.6038 170.949 44.8977 171.045 45.1C171.141 45.2927 171.247 45.4228 171.363 45.4902C171.479 45.5577 171.536 45.5818 171.536 45.5625H169.224ZM170.38 34.6794C170.168 34.6794 170 34.6119 169.874 34.477C169.759 34.3325 169.701 34.1687 169.701 33.9856C169.701 33.8026 169.759 33.6436 169.874 33.5087C170 33.3642 170.168 33.2919 170.38 33.2919C170.592 33.2919 170.756 33.3642 170.872 33.5087C170.997 33.6436 171.059 33.8026 171.059 33.9856C171.059 34.1687 170.997 34.3325 170.872 34.477C170.756 34.6119 170.592 34.6794 170.38 34.6794ZM176.646 40.5618C177.089 40.5618 177.475 40.4606 177.802 40.2582C178.13 40.0463 178.375 39.7765 178.539 39.4489C178.713 39.1116 178.799 38.76 178.799 38.3938C178.799 38.018 178.717 37.6663 178.554 37.3387C178.4 37.0015 178.159 36.7269 177.831 36.5149C177.503 36.3029 177.104 36.197 176.631 36.197H175.403V44.2328C175.403 44.6182 175.451 44.9121 175.547 45.1145C175.644 45.3072 175.75 45.4372 175.865 45.5047C175.981 45.5625 176.039 45.5818 176.039 45.5625H173.741C173.741 45.5818 173.799 45.5577 173.914 45.4902C174.03 45.4228 174.131 45.2927 174.218 45.1C174.314 44.9073 174.362 44.6182 174.362 44.2328V37.0063C174.362 36.6113 174.314 36.3126 174.218 36.1102C174.131 35.8983 174.03 35.7585 173.914 35.6911C173.799 35.614 173.741 35.5899 173.741 35.6188H176.603C177.354 35.6188 177.971 35.7441 178.452 35.9946C178.944 36.2355 179.296 36.5535 179.508 36.9485C179.729 37.3339 179.84 37.7579 179.84 38.2204C179.84 38.6058 179.748 38.9864 179.565 39.3622C179.382 39.7283 179.117 40.0511 178.77 40.3305C178.433 40.6003 178.038 40.7882 177.585 40.8942L177.354 40.9375L179.898 44.175C180.235 44.5508 180.514 44.8398 180.736 45.0422C180.958 45.2445 181.117 45.3794 181.213 45.4469C181.319 45.5143 181.382 45.5529 181.401 45.5625H179.71L175.779 40.5618H176.646ZM191.072 45.5625C191.187 45.5432 191.313 45.4421 191.447 45.259C191.582 45.0663 191.65 44.7146 191.65 44.2039V36.9774L187.863 45.7215L184.019 36.9919V44.1317C184.019 44.652 184.1 45.0181 184.264 45.2301C184.438 45.4324 184.592 45.5432 184.727 45.5625H182.588C182.732 45.5432 182.891 45.4372 183.065 45.2445C183.238 45.0422 183.325 44.6712 183.325 44.1317V36.8907C183.325 36.4282 183.243 36.1102 183.079 35.9368C182.915 35.7634 182.752 35.6574 182.588 35.6188H184.539L188.08 43.6981L191.563 35.6188H193.312C193.187 35.6381 193.052 35.7393 192.907 35.9223C192.763 36.1054 192.69 36.4427 192.69 36.9341V44.2617C192.69 44.7435 192.763 45.0759 192.907 45.259C193.052 45.4421 193.187 45.5432 193.312 45.5625H191.072ZM197.354 41.7035L196.429 44.0016C196.285 44.3581 196.213 44.652 196.213 44.8832C196.213 45.2012 196.357 45.4276 196.646 45.5625H194.579C194.676 45.5625 194.815 45.4661 194.998 45.2734C195.182 45.0807 195.394 44.7001 195.634 44.1317L199.407 35.1563L203.15 44.175C203.362 44.6953 203.564 45.0518 203.757 45.2445C203.959 45.4372 204.118 45.5432 204.234 45.5625H201.835C202.076 45.4469 202.196 45.2686 202.196 45.0277C202.196 44.8254 202.119 44.5363 201.965 44.1606L200.953 41.7035H197.354ZM200.722 41.111L199.146 37.252L197.6 41.111H200.722ZM208.114 45.7359C207.613 45.7359 207.131 45.6685 206.669 45.5336C206.206 45.3891 205.792 45.1915 205.426 44.941V43.1922C205.677 43.8378 206.057 44.3292 206.568 44.6664C207.088 44.994 207.628 45.1578 208.187 45.1578C208.745 45.1578 209.213 44.9747 209.588 44.6086C209.964 44.2328 210.152 43.7703 210.152 43.2211C210.152 42.855 210.075 42.5418 209.921 42.2817C209.776 42.0215 209.54 41.7806 209.213 41.559C208.885 41.3278 208.423 41.0724 207.825 40.793C206.987 40.4076 206.375 40.0077 205.99 39.5934C205.614 39.1695 205.426 38.6588 205.426 38.0614C205.426 37.5507 205.546 37.0979 205.787 36.7028C206.038 36.2981 206.37 35.9898 206.785 35.7778C207.209 35.5562 207.671 35.4454 208.172 35.4454C208.606 35.4454 209.03 35.508 209.444 35.6333C209.858 35.7489 210.244 35.9175 210.6 36.1391V37.7001C210.369 37.1701 210.017 36.7606 209.545 36.4716C209.083 36.1729 208.61 36.0235 208.129 36.0235C207.579 36.0235 207.136 36.2018 206.799 36.5583C206.462 36.9148 206.293 37.3387 206.293 37.8301C206.293 38.1866 206.394 38.495 206.597 38.7551C206.799 39.0057 207.045 39.2176 207.334 39.3911C207.632 39.5645 208.047 39.7765 208.577 40.027C209.116 40.2872 209.56 40.528 209.906 40.7496C210.253 40.9713 210.542 41.2603 210.774 41.6168C211.005 41.9733 211.12 42.4069 211.12 42.9176C211.12 43.4957 210.981 43.9968 210.701 44.4207C210.432 44.8447 210.065 45.1723 209.603 45.4035C209.15 45.6251 208.654 45.7359 208.114 45.7359ZM213.105 45.5625C213.105 45.5914 213.163 45.5721 213.279 45.5047C213.394 45.4276 213.5 45.2927 213.597 45.1C213.693 44.8977 213.741 44.6038 213.741 44.2184V36.963C213.741 36.5775 213.693 36.2885 213.597 36.0958C213.51 35.8934 213.409 35.7585 213.293 35.6911C213.177 35.6236 213.12 35.5996 213.12 35.6188H215.418C215.418 35.5996 215.36 35.6236 215.244 35.6911C215.129 35.7585 215.023 35.8934 214.926 36.0958C214.83 36.2885 214.782 36.5775 214.782 36.963V44.2184C214.782 44.6038 214.83 44.8977 214.926 45.1C215.023 45.2927 215.129 45.4228 215.244 45.4902C215.36 45.5577 215.418 45.5818 215.418 45.5625H213.105Z" fill="url(#paint0_linear_2031_509)"/>
<line x1="82.8133" y1="12.0703" x2="82.8133" y2="45.293" stroke="#E1A122" stroke-width="0.4"/>
</g>
<defs>
<linearGradient id="paint0_linear_2031_509" x1="216.896" y1="30.5625" x2="96.8965" y2="30.5625" gradientUnits="userSpaceOnUse">
<stop stop-color="#7B5813"/>
<stop offset="0.390824" stop-color="#F7A80B"/>
<stop offset="0.727263" stop-color="#AE7D1A"/>
<stop offset="1" stop-color="#EABB5D"/>
</linearGradient>
<clipPath id="clip0_2031_509">
<rect width="230" height="51.8182" fill="white" transform="translate(0 4.08984)"/>
</clipPath>
</defs>
</svg>
